<svg xmlns="http://www.w3.org/2000/svg" viewBox="0 0 512 256">
  <defs>
    <filter id="g"><feGaussianBlur stdDeviation="2"/></filter>
  </defs>
  <rect width="100%" height="100%" fill="none"/>
  <g fill="none" stroke="#29ff6a" stroke-width="12" stroke-linecap="round" stroke-linejoin="round">
    <path d="M100 70c-40 30-60 70-60 110"/>
    <path d="M130 60c-30 25-45 58-45 92"/>
    <path d="M160 52c-25 20-38 50-38 80"/>
    <circle cx="250" cy="130" r="54" fill="none"/>
    <path d="M200 180c-10 15-15 32-15 50 0 18 6 36 14 52" opacity=".6"/>
    <path d="M250 76c-18 0-36 8-48 22-9 10-14 24-20 39-12 32-20 31-6 49l5 12-14 11-2 18 8 18-1 12c0 11 11 19 22 17l51-12c8-2 13 2 16 19" opacity=".85"/>
    <path d="M250 110c18 0 46 14 46 36 0 21-19 34-46 34-18 0-32-8-32-20 0-17 13-28 32-28z"/>
    <path d="M315 70l12 44 22-36-6 62 81-80-44 90 64-22-64 58h66l-64 26 52 24h-70l40 40-64-40-8 22" />
  </g>
  <text x="256" y="240" font-size="64" text-anchor="middle" font-family="Arial Black, Arial, sans-serif" fill="#29ff6a">SOUNDSTRIKE</text>
</svg>