<svg xmlns="http://www.w3.org/2000/svg" viewBox="0 0 1600 1000">
  <defs>
    <linearGradient id="g" x1="0" y1="0" x2="1" y2="0">
      <stop offset="0" stop-color="#001018"/>
      <stop offset="1" stop-color="#060811"/>
    </linearGradient>
    <filter id="glow">
      <feGaussianBlur stdDeviation="2.5" result="b"/>
      <feMerge><feMergeNode in="b"/><feMergeNode in="SourceGraphic"/></feMerge>
    </filter>
  </defs>
  <rect width="1600" height="1000" fill="url(#g)"/>
  <g stroke="#0ff" stroke-opacity=".12" fill="none">
    <rect x="50" y="40" width="120" height="80" rx="6"/><rect x="50" y="160" width="120" height="80" rx="6"/><rect x="50" y="280" width="120" height="80" rx="6"/><rect x="50" y="400" width="120" height="80" rx="6"/><rect x="50" y="520" width="120" height="80" rx="6"/><rect x="50" y="640" width="120" height="80" rx="6"/><rect x="50" y="760" width="120" height="80" rx="6"/><rect x="200" y="40" width="120" height="80" rx="6"/><rect x="200" y="160" width="120" height="80" rx="6"/><rect x="200" y="280" width="120" height="80" rx="6"/><rect x="200" y="400" width="120" height="80" rx="6"/><rect x="200" y="520" width="120" height="80" rx="6"/><rect x="200" y="640" width="120" height="80" rx="6"/><rect x="200" y="760" width="120" height="80" rx="6"/><rect x="350" y="40" width="120" height="80" rx="6"/><rect x="350" y="160" width="120" height="80" rx="6"/><rect x="350" y="280" width="120" height="80" rx="6"/><rect x="350" y="400" width="120" height="80" rx="6"/><rect x="350" y="520" width="120" height="80" rx="6"/><rect x="350" y="640" width="120" height="80" rx="6"/><rect x="350" y="760" width="120" height="80" rx="6"/><rect x="500" y="40" width="120" height="80" rx="6"/><rect x="500" y="160" width="120" height="80" rx="6"/><rect x="500" y="280" width="120" height="80" rx="6"/><rect x="500" y="400" width="120" height="80" rx="6"/><rect x="500" y="520" width="120" height="80" rx="6"/><rect x="500" y="640" width="120" height="80" rx="6"/><rect x="500" y="760" width="120" height="80" rx="6"/><rect x="650" y="40" width="120" height="80" rx="6"/><rect x="650" y="160" width="120" height="80" rx="6"/><rect x="650" y="280" width="120" height="80" rx="6"/><rect x="650" y="400" width="120" height="80" rx="6"/><rect x="650" y="520" width="120" height="80" rx="6"/><rect x="650" y="640" width="120" height="80" rx="6"/><rect x="650" y="760" width="120" height="80" rx="6"/><rect x="800" y="40" width="120" height="80" rx="6"/><rect x="800" y="160" width="120" height="80" rx="6"/><rect x="800" y="280" width="120" height="80" rx="6"/><rect x="800" y="400" width="120" height="80" rx="6"/><rect x="800" y="520" width="120" height="80" rx="6"/><rect x="800" y="640" width="120" height="80" rx="6"/><rect x="800" y="760" width="120" height="80" rx="6"/><rect x="950" y="40" width="120" height="80" rx="6"/><rect x="950" y="160" width="120" height="80" rx="6"/><rect x="950" y="280" width="120" height="80" rx="6"/><rect x="950" y="400" width="120" height="80" rx="6"/><rect x="950" y="520" width="120" height="80" rx="6"/><rect x="950" y="640" width="120" height="80" rx="6"/><rect x="950" y="760" width="120" height="80" rx="6"/><rect x="1100" y="40" width="120" height="80" rx="6"/><rect x="1100" y="160" width="120" height="80" rx="6"/><rect x="1100" y="280" width="120" height="80" rx="6"/><rect x="1100" y="400" width="120" height="80" rx="6"/><rect x="1100" y="520" width="120" height="80" rx="6"/><rect x="1100" y="640" width="120" height="80" rx="6"/><rect x="1100" y="760" width="120" height="80" rx="6"/><rect x="1250" y="40" width="120" height="80" rx="6"/><rect x="1250" y="160" width="120" height="80" rx="6"/><rect x="1250" y="280" width="120" height="80" rx="6"/><rect x="1250" y="400" width="120" height="80" rx="6"/><rect x="1250" y="520" width="120" height="80" rx="6"/><rect x="1250" y="640" width="120" height="80" rx="6"/><rect x="1250" y="760" width="120" height="80" rx="6"/><rect x="1400" y="40" width="120" height="80" rx="6"/><rect x="1400" y="160" width="120" height="80" rx="6"/><rect x="1400" y="280" width="120" height="80" rx="6"/><rect x="1400" y="400" width="120" height="80" rx="6"/><rect x="1400" y="520" width="120" height="80" rx="6"/><rect x="1400" y="640" width="120" height="80" rx="6"/><rect x="1400" y="760" width="120" height="80" rx="6"/>
  </g>
  <g stroke="#ff2757" stroke-opacity=".25" fill="none" filter="url(#glow)">
    <circle cx="1430" cy="160" r="62"/>
    <circle cx="1430" cy="160" r="28"/>
    <circle cx="124" cy="860" r="54"/>
  </g>
</svg>