<svg xmlns="http://www.w3.org/2000/svg" viewBox="0 0 620 380">
  <defs>
    <filter id="glowC">
      <feGaussianBlur stdDeviation="3" result="b"/>
      <feMerge><feMergeNode in="b"/><feMergeNode in="SourceGraphic"/></feMerge>
    </filter>
  </defs>
  <g fill="none" stroke="#6ff" stroke-width="18" filter="url(#glowC)">
    <path d="M210,300c-20,-40 18,-56 0,-84c-12,-20 4,-60 18,-86c30,-60 142,-82 206,-34
             c14,-10 20,-30 22,-58l34,96l78,-80l-26,118l84,-36l-76,68h90l-88,36l86,34h-90l76,70l-112,-88
             c-34,36 -26,124 4,180" stroke-linecap="round" stroke-linejoin="round"/>
    <circle cx="320" cy="210" r="78"/>
    <path d="M96,86c52,-52 112,-76 178,-74" />
    <path d="M62,124c60,-66 134,-98 222,-98" />
    <path d="M34,164c72,-90 176,-134 302,-132" />
  </g>
</svg>